<svg width="133" height="91" viewBox="0 0 133 91" fill="none" xmlns="http://www.w3.org/2000/svg">
<mask id="path-1-inside-1_137_1439" fill="white">
<path d="M65.5482 90.1647C65.1886 90.0372 64.7969 89.9685 64.4742 89.7772C61.087 87.7759 57.7047 85.7696 54.3446 83.7217C53.847 83.4175 53.3789 82.9663 53.0661 82.4757C47.6293 74.0117 42.2197 65.533 36.8001 57.0591C36.677 56.8678 36.5168 56.6986 36.2335 56.5907C37.8151 60.4732 39.3966 64.3557 40.9781 68.2357C43.2297 73.7566 45.4935 79.275 47.7205 84.8057C48.0038 85.5072 48.3585 85.9021 49.1394 86.1154C53.9997 87.4472 58.8428 88.8501 63.6884 90.2359C64.0505 90.3389 64.3978 90.486 64.7525 90.6136C64.7205 90.7362 64.686 90.8613 64.654 90.9839C64.1786 90.8736 63.7007 90.7803 63.2326 90.6479C53.3395 87.8372 43.444 85.0265 33.5533 82.2059C31.2722 81.556 28.7719 81.269 26.7913 80.1065C24.8402 78.9611 23.4164 76.9205 21.7708 75.2674C15.0703 68.5325 8.38213 61.7829 1.65946 55.07C0.528751 53.9467 -0.0698599 52.8112 0.00650606 51.1188C0.20358 46.7556 0.161701 42.3801 0.242994 38.0095C0.247921 37.698 0.408043 37.3154 0.627288 37.0947C7.65542 29.9379 14.7033 22.8007 21.7437 15.6538C23.611 13.7579 25.4512 11.8375 27.3258 9.94895C27.5623 9.71105 27.917 9.54182 28.2471 9.45107C39.5789 6.3166 50.9155 3.18214 62.267 0.099182C63.0528 -0.114197 63.9544 0.0820136 64.8018 0.0893715L64.9077 0.604424C63.3484 1.60755 61.7915 2.61313 60.2322 3.6138C59.7493 3.92284 59.2887 4.29318 58.764 4.50901C57.079 5.20311 56.6307 6.41716 56.7514 8.1757C56.9411 10.9006 56.914 13.6451 56.9287 16.3798C56.9509 21.1011 56.9361 25.8224 56.9361 30.5437C57.079 30.556 57.2243 30.5682 57.3672 30.5829C60.0228 20.4953 62.6783 10.41 65.3339 0.322371C65.4251 0.322371 65.5187 0.322371 65.6098 0.322371C65.6098 0.658382 65.6813 1.01401 65.6 1.32795C63.3853 9.77972 61.156 18.2266 58.9315 26.6759C58.392 28.7288 57.8525 30.7841 57.3401 32.8443C57.2588 33.1729 57.1997 33.5874 57.3278 33.8768C59.8159 39.5596 62.3335 45.2301 64.9275 51.0894C65.1713 50.6504 65.361 50.3683 65.494 50.0618C67.6766 45.0437 69.8691 40.0305 72.0049 34.9928C72.2561 34.4017 72.3325 33.6414 72.2192 33.0086C70.3445 22.4378 68.428 11.8767 66.5213 1.31323C66.4794 1.07533 66.4622 0.832519 66.4425 0.668193C68.9305 -0.612081 71.2781 0.430287 73.6233 0.987035C82.3956 3.06196 91.1555 5.18594 99.9228 7.29275C101.731 8.81093 104.229 8.79622 106.069 10.6357C114.437 18.9918 123.064 27.0904 131.578 35.3043C131.905 35.6207 132.162 36.1602 132.191 36.6115C132.502 41.2887 132.782 45.9708 133.002 50.6528C133.026 51.1826 132.77 51.8718 132.4 52.2495C125.853 58.9599 119.263 65.6286 112.688 72.3145C110.422 74.62 108.192 76.9647 105.899 79.2432C105.431 79.7092 104.783 80.0844 104.15 80.2831C93.3676 83.6922 82.5729 87.0695 71.7782 90.4492C71.1377 90.6504 70.4825 90.8122 69.8346 90.9913C69.7952 90.8858 69.7582 90.7803 69.7188 90.6749C69.9701 90.5596 70.2115 90.4149 70.4751 90.3315C79.6612 87.4423 88.8448 84.5507 98.0383 81.6909C98.9005 81.4236 99.5286 81.0213 100.041 80.2487C104.852 72.9841 109.7 65.7439 114.538 58.4964C114.711 58.2388 114.854 57.9641 114.809 57.5496C107.749 66.0161 100.691 74.4826 93.6312 82.9491C93.4933 82.8657 93.3528 82.7823 93.2149 82.6989C97.7279 73.6266 102.241 64.5519 106.754 55.4796C106.7 55.4453 106.645 55.4109 106.591 55.3766C104.869 57.7336 103.145 60.0881 101.425 62.4475C96.7499 68.8612 92.0842 75.2797 87.3864 81.6737C87.0687 82.1054 86.5489 82.4512 86.0513 82.6768C80.612 85.1589 75.1728 87.6459 69.6892 90.0323C68.9379 90.3585 67.9501 90.1525 66.9179 90.1991C67.6077 88.0064 68.3097 85.9634 68.8763 83.886C69.1128 83.0129 69.2483 82.0367 69.1177 81.1538C67.8244 72.3194 66.4646 63.4948 64.9201 54.6482C64.7772 55.9333 64.6269 57.2161 64.4939 58.5013C63.6982 66.2491 62.8951 73.997 62.1364 81.7473C62.0822 82.304 62.2374 82.9712 62.5207 83.4568C63.814 85.6691 65.1861 87.8372 66.6149 90.1598C66.1271 90.1598 65.8365 90.1598 65.5482 90.1574C65.4497 89.7478 65.4324 89.2916 65.2304 88.9409C63.9174 86.6844 62.2891 84.5678 61.2717 82.1912C57.8057 74.0853 54.554 65.891 51.2161 57.7336C50.9451 57.0714 50.6618 56.4165 50.3859 55.7568C50.211 55.9652 50.1913 56.1173 50.2135 56.2669C51.4378 64.9443 52.6547 73.6217 53.9209 82.2942C53.9776 82.6842 54.4013 83.1208 54.7708 83.3464C58.057 85.3478 61.3752 87.2976 64.6713 89.2891C65.0161 89.4976 65.2649 89.8631 65.5581 90.1574L65.5482 90.1647ZM56.9287 34.3526C56.7243 34.6617 56.6405 34.75 56.5986 34.8579C54.4505 40.3689 52.3271 45.8898 50.1371 51.3837C49.7873 52.2593 49.8218 52.9608 50.1716 53.8118C53.544 61.9963 56.877 70.1979 60.2223 78.3921C60.6263 79.383 61.0426 80.3714 61.4516 81.3622C61.7644 80.1997 61.8925 79.0862 62.0083 77.9702C62.7424 70.8797 63.3977 63.7818 64.2451 56.7059C64.6244 53.5224 64.4101 50.6234 62.9025 47.668C60.7199 43.3955 58.9512 38.9121 56.9312 34.3526H56.9287ZM69.7139 81.4383C69.906 80.9625 69.9701 80.8227 70.0218 80.6755C72.9336 72.4886 75.6951 64.2429 78.8359 56.1443C80.0282 53.0687 79.905 50.5449 78.4467 47.6484C76.3577 43.5034 74.6851 39.1549 72.7882 34.7868C72.6207 35.0688 72.5 35.2282 72.4236 35.4048C70.1006 40.7565 67.7702 46.1057 65.4793 51.472C65.3044 51.8841 65.3093 52.4212 65.3758 52.8798C66.3045 59.1267 67.2554 65.3711 68.2063 71.6155C68.6866 74.7769 69.1768 77.9384 69.7139 81.4407V81.4383ZM88.1427 34.7868C87.9112 35.2577 87.7806 35.4956 87.6747 35.7433C85.6965 40.4008 83.6962 45.051 81.7649 49.7257C81.2895 50.8785 80.8214 52.0999 80.7106 53.3238C80.1267 59.8551 79.6538 66.3963 79.1512 72.9325C78.9443 75.6304 78.7522 78.3283 78.5378 81.2617C78.8064 80.9625 78.932 80.8644 79.0059 80.7368C84.2825 71.4757 89.5616 62.2194 94.8013 52.9387C95.0304 52.5315 95.0477 51.8448 94.8752 51.4009C93.5475 47.9746 92.1556 44.5752 90.7736 41.171C89.9361 39.1107 89.0813 37.0579 88.1452 34.7917L88.1427 34.7868ZM41.8428 35.086C41.6555 35.4809 41.5668 35.6452 41.4954 35.8193C39.3522 41.2077 37.1918 46.5913 35.1004 51.9993C34.9205 52.4629 35.0043 53.2134 35.2728 53.6377C39.5074 60.3432 43.7913 67.0192 48.0653 73.7002C49.7085 76.2681 51.3589 78.8287 53.1991 81.6958C53.1499 81.0164 53.1449 80.7049 53.103 80.4008C52.0191 72.7265 50.9377 65.0522 49.8365 57.3804C49.5828 55.6072 49.5336 53.7358 48.8955 52.0999C46.7006 46.4711 44.284 40.9282 41.8428 35.086ZM74.4239 6.75072C74.3032 8.42342 74.1899 9.74048 74.1185 11.0624C73.7539 17.8611 73.4287 24.6623 73.0173 31.4585C72.9212 33.0503 73.1651 34.4777 73.8302 35.9321C75.4118 39.383 76.8652 42.8927 78.3826 46.373C79.0552 47.9206 79.7548 49.4559 80.5406 51.2218C82.9991 45.4263 85.3517 39.9079 87.655 34.3698C87.7929 34.0387 87.6476 33.504 87.4702 33.1435C83.7677 25.5869 80.0455 18.0402 76.3208 10.4934C75.7517 9.3407 75.158 8.19777 74.4215 6.75072H74.4239ZM56.4459 6.65752C56.3104 6.63299 56.1774 6.60847 56.0419 6.58394C55.9532 6.75563 55.8621 6.92486 55.7759 7.09899C51.7851 14.9695 47.9077 22.9013 43.7347 30.6786C42.3872 33.1901 42.2468 35.2233 43.4711 37.7937C45.6069 42.2795 47.3682 46.9445 49.3463 51.6805C49.5212 51.3715 49.6395 51.212 49.7109 51.033C51.9403 45.3282 54.1746 39.6258 56.3794 33.9112C56.5641 33.4329 56.6282 32.8786 56.6233 32.3611C56.5789 26.8893 56.4976 21.415 56.4508 15.9432C56.4237 12.848 56.4459 9.75519 56.4459 6.65997V6.65752ZM95.4049 51.2366C95.5773 51.0869 95.666 51.0477 95.6882 50.9864C97.7131 45.6029 99.7553 40.2242 101.719 34.8186C101.884 34.3674 101.709 33.6119 101.411 33.2024C96.5257 26.4969 91.5964 19.8257 86.6721 13.1472C85.4921 11.5481 84.2998 9.95631 82.903 8.07759C83.0188 8.75943 83.0582 9.07827 83.1272 9.38975C84.2702 14.6506 85.4132 19.9091 86.5587 25.17C87.2263 28.2358 87.581 31.4144 88.6329 34.3428C90.6702 40.0182 93.1016 45.5563 95.4024 51.2366H95.4049ZM87.5737 80.2267C87.8175 80.0844 87.8619 80.0746 87.8841 80.0452C94.7102 70.7031 101.539 61.3635 108.333 51.9993C108.552 51.6952 108.547 51.0747 108.404 50.6896C107.025 46.9371 105.596 43.2017 104.18 39.4615C103.608 37.9531 103.034 36.4472 102.44 34.8922C96.0601 49.5786 92.1581 64.9198 87.5737 80.2267ZM47.8486 8.17815C47.7697 8.16589 47.6909 8.15363 47.6121 8.13891C41.318 16.9537 35.0166 25.766 28.7571 34.6053C28.4935 34.9756 28.4344 35.682 28.5896 36.1234C29.836 39.665 31.1564 43.1797 32.4522 46.7041C33.0779 48.4062 33.7036 50.1083 34.4279 52.0803C34.7456 51.3273 34.9501 50.8564 35.1398 50.3806C36.5292 46.8905 37.921 43.4004 39.303 39.9054C40.0543 38.0095 40.9756 36.1553 41.493 34.1957C42.8996 28.871 44.1288 23.4997 45.4295 18.1481C46.2375 14.8248 47.043 11.5039 47.8486 8.1806V8.17815ZM46.5454 83.6628C40.2612 67.809 34.0608 52.1661 27.8629 36.5281C26.2 41.5217 24.5397 46.5888 22.8079 51.6314C22.4951 52.5463 22.6133 53.1766 23.2045 53.9271C28.427 60.5369 33.61 67.1787 38.8078 73.8106C41.3402 77.0432 43.88 80.2708 46.543 83.6653L46.5454 83.6628ZM108.757 50.4959C108.875 50.4713 108.996 50.4468 109.114 50.4223C109.249 50.0593 109.407 49.7037 109.52 49.3333C110.912 44.7641 112.267 40.185 113.713 35.6329C114.041 34.6028 113.858 33.9455 113.127 33.1631C107.283 26.9236 101.49 20.64 95.6783 14.371C93.8973 12.4506 92.1113 10.5351 90.3278 8.61717C96.8139 22.4549 104.318 35.7899 108.757 50.4934V50.4959ZM40.3154 8.42832C40.0075 8.65151 39.9311 8.68585 39.8819 8.74471C32.4621 17.5717 25.0546 26.4061 17.6126 35.2135C17.0903 35.8316 17.1716 36.3417 17.3835 37.0015C18.7827 41.3549 20.1573 45.7157 21.5368 50.0765C21.7018 50.5964 21.8595 51.1164 22.0221 51.6388C22.9434 49.6007 23.5814 47.5846 24.2983 45.598C26.0424 40.7663 27.5771 35.8438 29.6414 31.1495C32.9744 23.5733 36.6622 16.1541 40.3154 8.42832ZM114.376 35.135C113.449 38.1812 112.627 40.911 111.787 43.6334C110.944 46.3583 110.39 49.2229 109.175 51.7737C105.51 59.4749 101.578 67.0536 97.7624 74.6837C96.9223 76.3638 96.1242 78.0684 95.1708 80.0427C95.5379 79.7509 95.6512 79.6895 95.7276 79.5963C103.495 70.2739 111.267 60.9539 119.002 51.6045C119.261 51.2905 119.312 50.6234 119.187 50.204C118.204 46.9641 117.154 43.7462 116.122 40.521C115.578 38.8238 115.026 37.1315 114.378 35.1326L114.376 35.135ZM37.4382 80.6485C37.5121 80.6093 37.586 80.57 37.6599 80.5308C37.4874 80.1825 37.3322 79.822 37.1376 79.486C34.2998 74.5685 31.4644 69.6485 28.6117 64.7383C24.9018 58.3541 20.9062 52.1195 19.2581 44.7592C18.6866 42.2035 17.7086 39.7411 16.8588 37.0554C16.6937 37.416 16.6026 37.5558 16.5607 37.7103C15.2329 42.5959 13.8903 47.4767 12.6192 52.377C12.5182 52.767 12.8064 53.39 13.1094 53.7309C16.8932 57.9715 20.7091 62.1802 24.5225 66.3938C28.826 71.1495 33.1346 75.9002 37.4406 80.651L37.4382 80.6485ZM5.29793 51.6462C5.45805 51.1164 5.56152 50.8687 5.60339 50.6111C6.32764 46.3092 7.00508 42 7.7983 37.7103C7.94857 36.8936 8.39198 36.0131 8.9635 35.4097C16.302 27.6643 23.6898 19.968 31.0604 12.2544C32.265 10.9938 33.4474 9.70614 34.6397 8.43323C32.7232 8.74471 30.9323 9.17147 29.1906 9.74784C28.4147 10.0054 27.6116 10.4419 27.0401 11.0134C22.5295 15.5287 18.0781 20.1004 13.5997 24.6451C9.57935 28.7263 5.54427 32.7879 1.53875 36.8838C1.24068 37.1879 0.903191 37.7692 1.00173 38.0954C2.35907 42.5322 3.79032 46.9469 5.29547 51.6486L5.29793 51.6462ZM100.342 80.7025C100.406 80.8055 100.47 80.9061 100.536 81.0091C101.226 80.6363 102.1 80.4204 102.573 79.8661C110.715 70.3254 118.81 60.7454 126.89 51.1532C127.134 50.8638 127.299 50.3193 127.21 49.9685C126.015 45.3527 124.766 40.7491 123.466 35.8953C123.306 36.4717 123.192 36.8102 123.116 37.156C122.135 41.6149 121.167 46.0787 120.177 50.5351C120.083 50.9594 119.911 51.396 119.674 51.759C117.837 54.5599 115.977 57.3485 114.115 60.1323C109.528 66.9923 104.936 73.8474 100.344 80.7049L100.342 80.7025ZM119.601 49.635C119.687 49.6252 119.771 49.6178 119.857 49.608C120.906 44.8303 121.968 40.0526 122.973 35.2675C123.042 34.9364 122.808 34.414 122.542 34.1589C115.497 27.3921 108.431 20.6473 101.366 13.9001C100.258 12.8406 99.1419 11.7909 98.0284 10.7362C97.9496 10.9791 98.0038 11.114 98.0851 11.2268C103.219 18.3026 108.358 25.376 113.481 32.4592C113.954 33.1141 114.459 33.7959 114.723 34.5439C115.536 36.8494 116.236 39.1966 116.984 41.5241C117.854 44.2294 118.729 46.9322 119.601 49.635ZM127.646 49.4756C127.816 49.0365 127.922 48.8183 127.986 48.5877C128.994 44.9284 129.922 41.247 131.033 37.622C131.427 36.3368 131.161 35.5888 130.22 34.6911C121.66 26.5386 113.139 18.3468 104.643 10.1304C103.81 9.32353 102.926 8.98997 101.741 8.96545C101.928 9.23033 102.051 9.4388 102.206 9.61785C108.771 17.2308 115.304 24.8708 121.938 32.4224C123.207 33.8646 123.939 35.4122 124.389 37.2247C125.395 41.2519 126.515 45.2521 127.646 49.478V49.4756ZM32.6788 11.6928C32.6173 11.6315 32.5532 11.5701 32.4916 11.5088C31.287 12.7866 30.0922 14.0694 28.8778 15.3398C22.2389 22.2857 15.5901 29.2217 8.97828 36.1921C8.65803 36.5281 8.46589 37.2247 8.56442 37.676C9.19013 40.5455 9.89221 43.3979 10.6115 46.2455C11.0599 48.0187 11.5772 49.7748 12.0625 51.5382C13.2055 48.0972 14.0997 44.666 15.058 41.2543C15.8586 38.4068 16.3956 35.4956 18.2801 33.0061C20.4726 30.1096 22.3842 27.0021 24.4165 23.9829C27.1706 19.887 29.9223 15.7911 32.6764 11.6928H32.6788ZM32.568 81.3892C32.5975 81.3156 32.6296 81.2421 32.6591 81.1685C29.7203 78.1591 26.7913 75.1399 23.8426 72.1428C18.2752 66.487 12.6857 60.8558 7.1381 55.1828C6.32764 54.3539 5.48269 53.4366 5.03434 52.3967C4.27808 50.6455 3.8322 48.7594 3.2459 46.9346C2.46993 44.5114 1.68902 42.0882 0.908117 39.6675C0.78741 39.6822 0.666702 39.6945 0.545995 39.7092C0.545995 44.0553 0.531214 48.3989 0.573092 52.7449C0.575556 53.0834 0.898264 53.4758 1.16678 53.7481C9.58921 62.2219 18.0215 70.6835 26.4612 79.1377C26.7716 79.4492 27.1189 79.8073 27.518 79.9348C29.1882 80.4646 30.883 80.9134 32.568 81.3917V81.3892ZM67.5017 89.5369C67.6348 89.5957 67.7678 89.6546 67.8983 89.7135C70.8914 87.5748 73.8598 85.4017 76.8923 83.3194C77.6978 82.7651 77.9737 82.1201 78.0427 81.2175C78.5625 74.2324 79.1069 67.2473 79.6439 60.2622C79.7129 59.3695 79.7843 58.4743 79.8459 57.5791C79.9075 56.6912 79.9592 55.8034 80.0159 54.918C79.9223 54.9032 79.8262 54.8885 79.7326 54.8738C75.6556 66.4282 71.5787 77.9825 67.5017 89.5369ZM94.3949 55.2442C94.3358 55.2172 94.2766 55.1902 94.2175 55.1657C94.151 55.2589 94.0746 55.3472 94.018 55.4453C89.2069 63.8848 84.3712 72.312 79.6119 80.781C78.7866 82.2476 77.7717 83.4053 76.3774 84.3446C74.0175 85.9315 71.7413 87.6361 69.4281 89.2941C69.9405 89.3382 70.3445 89.1837 70.7362 89.0095C75.6261 86.8144 80.5037 84.5899 85.4132 82.4389C86.2163 82.0882 86.6326 81.6345 86.8667 80.8227C88.0516 76.7071 89.2759 72.6014 90.4879 68.4933C91.7886 64.0786 93.0917 59.6638 94.3949 55.2466V55.2442ZM103.45 79.7435C103.546 79.849 103.64 79.9544 103.736 80.0599C104.382 79.6111 105.116 79.2481 105.658 78.7011C113.745 70.5191 121.754 62.2587 129.915 54.1503C131.753 52.3231 132.802 50.6381 132.413 47.9181C131.928 44.5237 131.937 41.0581 131.733 37.6245C130.472 41.4923 129.42 45.3797 128.319 49.2548C128.102 50.0201 127.846 50.8564 127.35 51.4475C122.5 57.2553 117.595 63.0166 112.708 68.7925C109.619 72.442 106.535 76.094 103.448 79.746L103.45 79.7435ZM29.7153 76.6262C29.6488 76.69 29.5848 76.7562 29.5183 76.82C29.3926 76.6237 29.2793 76.4177 29.1414 76.2313C23.8918 69.2266 18.6102 62.2415 13.4124 55.1976C12.5872 54.0792 11.927 52.7547 11.5328 51.423C10.3307 47.3565 9.2936 43.2434 8.1013 38.8066C7.30562 43.6187 6.54688 48.1119 5.84727 52.6125C5.80047 52.9215 6.1084 53.363 6.36705 53.6303C11.5821 58.9501 16.7799 64.287 22.0615 69.543C24.5249 71.9932 27.1583 74.2717 29.7153 76.6287V76.6262ZM63.0355 1.19551C63.0085 1.12929 62.9789 1.06552 62.9518 0.999298C58.4511 2.72595 53.9406 4.43298 49.4646 6.2185C49.0556 6.38283 48.7009 7.02296 48.5753 7.50613C47.5505 11.499 46.5824 15.5042 45.6044 19.5093C44.6658 23.3452 43.7371 27.1836 42.806 31.022C43.0572 30.9239 43.1853 30.7816 43.2691 30.6148C47.3436 22.5604 51.4107 14.5035 55.5024 6.45886C55.7241 6.02229 56.1084 5.60779 56.5223 5.338C58.6753 3.93019 60.8628 2.57144 63.0405 1.19551H63.0355ZM61.1757 1.10476C61.0082 1.02137 60.9663 0.979677 60.9367 0.987035C54.8127 2.66709 48.6886 4.34224 42.5769 6.05663C42.2123 6.15964 41.8157 6.53734 41.6481 6.88807C38.4088 13.6696 35.2014 20.4658 31.9915 27.2596C31.3732 28.5669 30.7795 29.8839 30.176 31.1961C30.5233 31.1103 30.6711 30.9239 30.8116 30.7301C35.7827 23.7744 40.8549 16.8899 45.6684 9.82877C47.5283 7.09899 49.6641 5.18349 52.8887 4.25149C55.6896 3.44212 58.3624 2.19128 61.1831 1.09986L61.1757 1.10476ZM70.8101 2.60577C70.7731 2.68426 70.7337 2.76274 70.6968 2.84122C71.2338 3.20667 71.7437 3.62607 72.3128 3.93019C73.7908 4.71258 74.6801 5.92173 75.4044 7.41538C78.7866 14.3931 82.2576 21.3292 85.699 28.2775C86.1917 29.2708 86.6868 30.2617 87.182 31.255C87.2017 30.6001 87.0588 30.0115 86.9307 29.4204C85.3738 22.2464 83.8268 15.0725 82.2428 7.90591C82.1492 7.48651 81.8758 6.90769 81.5358 6.77034C77.9762 5.338 74.387 3.9817 70.8076 2.60577H70.8101ZM66.9918 1.01647C68.8295 11.1826 70.5982 20.9564 72.367 30.7301C72.7734 27.1444 72.9311 23.5782 73.1232 20.0146C73.3671 15.4944 73.6455 10.9791 73.8746 6.45886C73.8918 6.11058 73.7366 5.59798 73.4804 5.41894C71.4457 3.9866 69.369 2.61558 66.9943 1.01892L66.9918 1.01647ZM70.4923 1.69339C70.4578 1.75471 70.4209 1.81602 70.3864 1.87734C74.0544 3.2876 77.7323 4.67089 81.3806 6.13266C82.0186 6.38773 82.6641 6.8709 83.073 7.42029C87.719 13.65 92.3182 19.9164 96.9322 26.1707C97.8806 27.4558 98.8413 28.7312 99.8809 30.1243C99.9129 29.8545 99.9573 29.7613 99.9277 29.7024C96.2129 22.1974 92.498 14.6899 88.7512 7.19955C88.5763 6.85128 88.1624 6.49319 87.7904 6.39018C82.031 4.80088 76.2592 3.25327 70.4899 1.69585L70.4923 1.69339ZM25.291 57.4123C25.2319 57.4368 25.1753 57.4613 25.1161 57.4859C25.19 57.66 25.2492 57.844 25.3428 58.0058C30.1366 66.3153 34.9304 74.6249 39.7415 82.927C39.9114 83.2189 40.2046 83.5426 40.5076 83.6358C42.6926 84.2956 44.8949 84.9014 47.3633 85.6004C39.8868 76.0547 32.5877 66.7323 25.2886 57.4123H25.291ZM89.2439 6.21605C89.1946 6.30189 89.1453 6.39018 89.0961 6.47603C96.0109 13.9369 102.928 21.3978 109.843 28.8612C109.996 28.6208 109.981 28.535 109.937 28.4737C105.069 21.7535 100.201 15.0357 95.3236 8.32286C95.1364 8.06533 94.9097 7.73668 94.6387 7.65819C92.8503 7.14559 91.0446 6.6894 89.2439 6.21605ZM83.312 3.86642C83.2947 3.93755 83.2775 4.00868 83.2578 4.0798C86.3764 4.90144 89.4976 5.71816 92.6138 6.55206C93.9046 6.89788 95.1511 7.17993 96.2129 8.21494C101.953 13.8118 107.776 19.3278 113.58 24.8634C114.967 26.1878 116.378 27.4853 117.965 28.9667C117.849 28.6208 117.844 28.5325 117.8 28.4786C112.033 21.7927 106.269 15.1068 100.475 8.44304C100.157 8.07759 99.6247 7.81026 99.1419 7.68763C96.2843 6.95919 93.412 6.28717 90.5445 5.59798C88.1353 5.01916 85.7236 4.44279 83.312 3.86642ZM40.8525 6.76053C40.7983 6.69186 40.7441 6.62318 40.6899 6.55696C39.1946 6.96655 37.6968 7.36388 36.2114 7.8029C35.9798 7.87157 35.7532 8.09967 35.6103 8.31059C31.085 15.0259 26.5671 21.751 22.0516 28.4737C21.8841 28.7238 21.7486 28.9961 21.5984 29.2585C21.6674 29.3051 21.7363 29.3542 21.8053 29.4008C28.1535 21.854 34.5018 14.3073 40.85 6.76053H40.8525ZM17.8318 59.7913C17.7801 59.8232 17.7308 59.8551 17.6791 59.887C17.8515 60.169 17.9993 60.4683 18.1964 60.7307C23.34 67.6005 28.4861 74.4679 33.6371 81.3304C33.7775 81.5168 33.9352 81.7645 34.1323 81.8233C35.6448 82.2795 37.1697 82.694 39.0148 83.214C31.7945 75.2307 24.8131 67.5122 17.8318 59.7913Z"/>
</mask>
<path d="M65.5482 90.1647C65.1886 90.0372 64.7969 89.9685 64.4742 89.7772C61.087 87.7759 57.7047 85.7696 54.3446 83.7217C53.847 83.4175 53.3789 82.9663 53.0661 82.4757C47.6293 74.0117 42.2197 65.533 36.8001 57.0591C36.677 56.8678 36.5168 56.6986 36.2335 56.5907C37.8151 60.4732 39.3966 64.3557 40.9781 68.2357C43.2297 73.7566 45.4935 79.275 47.7205 84.8057C48.0038 85.5072 48.3585 85.9021 49.1394 86.1154C53.9997 87.4472 58.8428 88.8501 63.6884 90.2359C64.0505 90.3389 64.3978 90.486 64.7525 90.6136C64.7205 90.7362 64.686 90.8613 64.654 90.9839C64.1786 90.8736 63.7007 90.7803 63.2326 90.6479C53.3395 87.8372 43.444 85.0265 33.5533 82.2059C31.2722 81.556 28.7719 81.269 26.7913 80.1065C24.8402 78.9611 23.4164 76.9205 21.7708 75.2674C15.0703 68.5325 8.38213 61.7829 1.65946 55.07C0.528751 53.9467 -0.0698599 52.8112 0.00650606 51.1188C0.20358 46.7556 0.161701 42.3801 0.242994 38.0095C0.247921 37.698 0.408043 37.3154 0.627288 37.0947C7.65542 29.9379 14.7033 22.8007 21.7437 15.6538C23.611 13.7579 25.4512 11.8375 27.3258 9.94895C27.5623 9.71105 27.917 9.54182 28.2471 9.45107C39.5789 6.3166 50.9155 3.18214 62.267 0.099182C63.0528 -0.114197 63.9544 0.0820136 64.8018 0.0893715L64.9077 0.604424C63.3484 1.60755 61.7915 2.61313 60.2322 3.6138C59.7493 3.92284 59.2887 4.29318 58.764 4.50901C57.079 5.20311 56.6307 6.41716 56.7514 8.1757C56.9411 10.9006 56.914 13.6451 56.9287 16.3798C56.9509 21.1011 56.9361 25.8224 56.9361 30.5437C57.079 30.556 57.2243 30.5682 57.3672 30.5829C60.0228 20.4953 62.6783 10.41 65.3339 0.322371C65.4251 0.322371 65.5187 0.322371 65.6098 0.322371C65.6098 0.658382 65.6813 1.01401 65.6 1.32795C63.3853 9.77972 61.156 18.2266 58.9315 26.6759C58.392 28.7288 57.8525 30.7841 57.3401 32.8443C57.2588 33.1729 57.1997 33.5874 57.3278 33.8768C59.8159 39.5596 62.3335 45.2301 64.9275 51.0894C65.1713 50.6504 65.361 50.3683 65.494 50.0618C67.6766 45.0437 69.8691 40.0305 72.0049 34.9928C72.2561 34.4017 72.3325 33.6414 72.2192 33.0086C70.3445 22.4378 68.428 11.8767 66.5213 1.31323C66.4794 1.07533 66.4622 0.832519 66.4425 0.668193C68.9305 -0.612081 71.2781 0.430287 73.6233 0.987035C82.3956 3.06196 91.1555 5.18594 99.9228 7.29275C101.731 8.81093 104.229 8.79622 106.069 10.6357C114.437 18.9918 123.064 27.0904 131.578 35.3043C131.905 35.6207 132.162 36.1602 132.191 36.6115C132.502 41.2887 132.782 45.9708 133.002 50.6528C133.026 51.1826 132.77 51.8718 132.4 52.2495C125.853 58.9599 119.263 65.6286 112.688 72.3145C110.422 74.62 108.192 76.9647 105.899 79.2432C105.431 79.7092 104.783 80.0844 104.15 80.2831C93.3676 83.6922 82.5729 87.0695 71.7782 90.4492C71.1377 90.6504 70.4825 90.8122 69.8346 90.9913C69.7952 90.8858 69.7582 90.7803 69.7188 90.6749C69.9701 90.5596 70.2115 90.4149 70.4751 90.3315C79.6612 87.4423 88.8448 84.5507 98.0383 81.6909C98.9005 81.4236 99.5286 81.0213 100.041 80.2487C104.852 72.9841 109.7 65.7439 114.538 58.4964C114.711 58.2388 114.854 57.9641 114.809 57.5496C107.749 66.0161 100.691 74.4826 93.6312 82.9491C93.4933 82.8657 93.3528 82.7823 93.2149 82.6989C97.7279 73.6266 102.241 64.5519 106.754 55.4796C106.7 55.4453 106.645 55.4109 106.591 55.3766C104.869 57.7336 103.145 60.0881 101.425 62.4475C96.7499 68.8612 92.0842 75.2797 87.3864 81.6737C87.0687 82.1054 86.5489 82.4512 86.0513 82.6768C80.612 85.1589 75.1728 87.6459 69.6892 90.0323C68.9379 90.3585 67.9501 90.1525 66.9179 90.1991C67.6077 88.0064 68.3097 85.9634 68.8763 83.886C69.1128 83.0129 69.2483 82.0367 69.1177 81.1538C67.8244 72.3194 66.4646 63.4948 64.9201 54.6482C64.7772 55.9333 64.6269 57.2161 64.4939 58.5013C63.6982 66.2491 62.8951 73.997 62.1364 81.7473C62.0822 82.304 62.2374 82.9712 62.5207 83.4568C63.814 85.6691 65.1861 87.8372 66.6149 90.1598C66.1271 90.1598 65.8365 90.1598 65.5482 90.1574C65.4497 89.7478 65.4324 89.2916 65.2304 88.9409C63.9174 86.6844 62.2891 84.5678 61.2717 82.1912C57.8057 74.0853 54.554 65.891 51.2161 57.7336C50.9451 57.0714 50.6618 56.4165 50.3859 55.7568C50.211 55.9652 50.1913 56.1173 50.2135 56.2669C51.4378 64.9443 52.6547 73.6217 53.9209 82.2942C53.9776 82.6842 54.4013 83.1208 54.7708 83.3464C58.057 85.3478 61.3752 87.2976 64.6713 89.2891C65.0161 89.4976 65.2649 89.8631 65.5581 90.1574L65.5482 90.1647ZM56.9287 34.3526C56.7243 34.6617 56.6405 34.75 56.5986 34.8579C54.4505 40.3689 52.3271 45.8898 50.1371 51.3837C49.7873 52.2593 49.8218 52.9608 50.1716 53.8118C53.544 61.9963 56.877 70.1979 60.2223 78.3921C60.6263 79.383 61.0426 80.3714 61.4516 81.3622C61.7644 80.1997 61.8925 79.0862 62.0083 77.9702C62.7424 70.8797 63.3977 63.7818 64.2451 56.7059C64.6244 53.5224 64.4101 50.6234 62.9025 47.668C60.7199 43.3955 58.9512 38.9121 56.9312 34.3526H56.9287ZM69.7139 81.4383C69.906 80.9625 69.9701 80.8227 70.0218 80.6755C72.9336 72.4886 75.6951 64.2429 78.8359 56.1443C80.0282 53.0687 79.905 50.5449 78.4467 47.6484C76.3577 43.5034 74.6851 39.1549 72.7882 34.7868C72.6207 35.0688 72.5 35.2282 72.4236 35.4048C70.1006 40.7565 67.7702 46.1057 65.4793 51.472C65.3044 51.8841 65.3093 52.4212 65.3758 52.8798C66.3045 59.1267 67.2554 65.3711 68.2063 71.6155C68.6866 74.7769 69.1768 77.9384 69.7139 81.4407V81.4383ZM88.1427 34.7868C87.9112 35.2577 87.7806 35.4956 87.6747 35.7433C85.6965 40.4008 83.6962 45.051 81.7649 49.7257C81.2895 50.8785 80.8214 52.0999 80.7106 53.3238C80.1267 59.8551 79.6538 66.3963 79.1512 72.9325C78.9443 75.6304 78.7522 78.3283 78.5378 81.2617C78.8064 80.9625 78.932 80.8644 79.0059 80.7368C84.2825 71.4757 89.5616 62.2194 94.8013 52.9387C95.0304 52.5315 95.0477 51.8448 94.8752 51.4009C93.5475 47.9746 92.1556 44.5752 90.7736 41.171C89.9361 39.1107 89.0813 37.0579 88.1452 34.7917L88.1427 34.7868ZM41.8428 35.086C41.6555 35.4809 41.5668 35.6452 41.4954 35.8193C39.3522 41.2077 37.1918 46.5913 35.1004 51.9993C34.9205 52.4629 35.0043 53.2134 35.2728 53.6377C39.5074 60.3432 43.7913 67.0192 48.0653 73.7002C49.7085 76.2681 51.3589 78.8287 53.1991 81.6958C53.1499 81.0164 53.1449 80.7049 53.103 80.4008C52.0191 72.7265 50.9377 65.0522 49.8365 57.3804C49.5828 55.6072 49.5336 53.7358 48.8955 52.0999C46.7006 46.4711 44.284 40.9282 41.8428 35.086ZM74.4239 6.75072C74.3032 8.42342 74.1899 9.74048 74.1185 11.0624C73.7539 17.8611 73.4287 24.6623 73.0173 31.4585C72.9212 33.0503 73.1651 34.4777 73.8302 35.9321C75.4118 39.383 76.8652 42.8927 78.3826 46.373C79.0552 47.9206 79.7548 49.4559 80.5406 51.2218C82.9991 45.4263 85.3517 39.9079 87.655 34.3698C87.7929 34.0387 87.6476 33.504 87.4702 33.1435C83.7677 25.5869 80.0455 18.0402 76.3208 10.4934C75.7517 9.3407 75.158 8.19777 74.4215 6.75072H74.4239ZM56.4459 6.65752C56.3104 6.63299 56.1774 6.60847 56.0419 6.58394C55.9532 6.75563 55.8621 6.92486 55.7759 7.09899C51.7851 14.9695 47.9077 22.9013 43.7347 30.6786C42.3872 33.1901 42.2468 35.2233 43.4711 37.7937C45.6069 42.2795 47.3682 46.9445 49.3463 51.6805C49.5212 51.3715 49.6395 51.212 49.7109 51.033C51.9403 45.3282 54.1746 39.6258 56.3794 33.9112C56.5641 33.4329 56.6282 32.8786 56.6233 32.3611C56.5789 26.8893 56.4976 21.415 56.4508 15.9432C56.4237 12.848 56.4459 9.75519 56.4459 6.65997V6.65752ZM95.4049 51.2366C95.5773 51.0869 95.666 51.0477 95.6882 50.9864C97.7131 45.6029 99.7553 40.2242 101.719 34.8186C101.884 34.3674 101.709 33.6119 101.411 33.2024C96.5257 26.4969 91.5964 19.8257 86.6721 13.1472C85.4921 11.5481 84.2998 9.95631 82.903 8.07759C83.0188 8.75943 83.0582 9.07827 83.1272 9.38975C84.2702 14.6506 85.4132 19.9091 86.5587 25.17C87.2263 28.2358 87.581 31.4144 88.6329 34.3428C90.6702 40.0182 93.1016 45.5563 95.4024 51.2366H95.4049ZM87.5737 80.2267C87.8175 80.0844 87.8619 80.0746 87.8841 80.0452C94.7102 70.7031 101.539 61.3635 108.333 51.9993C108.552 51.6952 108.547 51.0747 108.404 50.6896C107.025 46.9371 105.596 43.2017 104.18 39.4615C103.608 37.9531 103.034 36.4472 102.44 34.8922C96.0601 49.5786 92.1581 64.9198 87.5737 80.2267ZM47.8486 8.17815C47.7697 8.16589 47.6909 8.15363 47.6121 8.13891C41.318 16.9537 35.0166 25.766 28.7571 34.6053C28.4935 34.9756 28.4344 35.682 28.5896 36.1234C29.836 39.665 31.1564 43.1797 32.4522 46.7041C33.0779 48.4062 33.7036 50.1083 34.4279 52.0803C34.7456 51.3273 34.9501 50.8564 35.1398 50.3806C36.5292 46.8905 37.921 43.4004 39.303 39.9054C40.0543 38.0095 40.9756 36.1553 41.493 34.1957C42.8996 28.871 44.1288 23.4997 45.4295 18.1481C46.2375 14.8248 47.043 11.5039 47.8486 8.1806V8.17815ZM46.5454 83.6628C40.2612 67.809 34.0608 52.1661 27.8629 36.5281C26.2 41.5217 24.5397 46.5888 22.8079 51.6314C22.4951 52.5463 22.6133 53.1766 23.2045 53.9271C28.427 60.5369 33.61 67.1787 38.8078 73.8106C41.3402 77.0432 43.88 80.2708 46.543 83.6653L46.5454 83.6628ZM108.757 50.4959C108.875 50.4713 108.996 50.4468 109.114 50.4223C109.249 50.0593 109.407 49.7037 109.52 49.3333C110.912 44.7641 112.267 40.185 113.713 35.6329C114.041 34.6028 113.858 33.9455 113.127 33.1631C107.283 26.9236 101.49 20.64 95.6783 14.371C93.8973 12.4506 92.1113 10.5351 90.3278 8.61717C96.8139 22.4549 104.318 35.7899 108.757 50.4934V50.4959ZM40.3154 8.42832C40.0075 8.65151 39.9311 8.68585 39.8819 8.74471C32.4621 17.5717 25.0546 26.4061 17.6126 35.2135C17.0903 35.8316 17.1716 36.3417 17.3835 37.0015C18.7827 41.3549 20.1573 45.7157 21.5368 50.0765C21.7018 50.5964 21.8595 51.1164 22.0221 51.6388C22.9434 49.6007 23.5814 47.5846 24.2983 45.598C26.0424 40.7663 27.5771 35.8438 29.6414 31.1495C32.9744 23.5733 36.6622 16.1541 40.3154 8.42832ZM114.376 35.135C113.449 38.1812 112.627 40.911 111.787 43.6334C110.944 46.3583 110.39 49.2229 109.175 51.7737C105.51 59.4749 101.578 67.0536 97.7624 74.6837C96.9223 76.3638 96.1242 78.0684 95.1708 80.0427C95.5379 79.7509 95.6512 79.6895 95.7276 79.5963C103.495 70.2739 111.267 60.9539 119.002 51.6045C119.261 51.2905 119.312 50.6234 119.187 50.204C118.204 46.9641 117.154 43.7462 116.122 40.521C115.578 38.8238 115.026 37.1315 114.378 35.1326L114.376 35.135ZM37.4382 80.6485C37.5121 80.6093 37.586 80.57 37.6599 80.5308C37.4874 80.1825 37.3322 79.822 37.1376 79.486C34.2998 74.5685 31.4644 69.6485 28.6117 64.7383C24.9018 58.3541 20.9062 52.1195 19.2581 44.7592C18.6866 42.2035 17.7086 39.7411 16.8588 37.0554C16.6937 37.416 16.6026 37.5558 16.5607 37.7103C15.2329 42.5959 13.8903 47.4767 12.6192 52.377C12.5182 52.767 12.8064 53.39 13.1094 53.7309C16.8932 57.9715 20.7091 62.1802 24.5225 66.3938C28.826 71.1495 33.1346 75.9002 37.4406 80.651L37.4382 80.6485ZM5.29793 51.6462C5.45805 51.1164 5.56152 50.8687 5.60339 50.6111C6.32764 46.3092 7.00508 42 7.7983 37.7103C7.94857 36.8936 8.39198 36.0131 8.9635 35.4097C16.302 27.6643 23.6898 19.968 31.0604 12.2544C32.265 10.9938 33.4474 9.70614 34.6397 8.43323C32.7232 8.74471 30.9323 9.17147 29.1906 9.74784C28.4147 10.0054 27.6116 10.4419 27.0401 11.0134C22.5295 15.5287 18.0781 20.1004 13.5997 24.6451C9.57935 28.7263 5.54427 32.7879 1.53875 36.8838C1.24068 37.1879 0.903191 37.7692 1.00173 38.0954C2.35907 42.5322 3.79032 46.9469 5.29547 51.6486L5.29793 51.6462ZM100.342 80.7025C100.406 80.8055 100.47 80.9061 100.536 81.0091C101.226 80.6363 102.1 80.4204 102.573 79.8661C110.715 70.3254 118.81 60.7454 126.89 51.1532C127.134 50.8638 127.299 50.3193 127.21 49.9685C126.015 45.3527 124.766 40.7491 123.466 35.8953C123.306 36.4717 123.192 36.8102 123.116 37.156C122.135 41.6149 121.167 46.0787 120.177 50.5351C120.083 50.9594 119.911 51.396 119.674 51.759C117.837 54.5599 115.977 57.3485 114.115 60.1323C109.528 66.9923 104.936 73.8474 100.344 80.7049L100.342 80.7025ZM119.601 49.635C119.687 49.6252 119.771 49.6178 119.857 49.608C120.906 44.8303 121.968 40.0526 122.973 35.2675C123.042 34.9364 122.808 34.414 122.542 34.1589C115.497 27.3921 108.431 20.6473 101.366 13.9001C100.258 12.8406 99.1419 11.7909 98.0284 10.7362C97.9496 10.9791 98.0038 11.114 98.0851 11.2268C103.219 18.3026 108.358 25.376 113.481 32.4592C113.954 33.1141 114.459 33.7959 114.723 34.5439C115.536 36.8494 116.236 39.1966 116.984 41.5241C117.854 44.2294 118.729 46.9322 119.601 49.635ZM127.646 49.4756C127.816 49.0365 127.922 48.8183 127.986 48.5877C128.994 44.9284 129.922 41.247 131.033 37.622C131.427 36.3368 131.161 35.5888 130.22 34.6911C121.66 26.5386 113.139 18.3468 104.643 10.1304C103.81 9.32353 102.926 8.98997 101.741 8.96545C101.928 9.23033 102.051 9.4388 102.206 9.61785C108.771 17.2308 115.304 24.8708 121.938 32.4224C123.207 33.8646 123.939 35.4122 124.389 37.2247C125.395 41.2519 126.515 45.2521 127.646 49.478V49.4756ZM32.6788 11.6928C32.6173 11.6315 32.5532 11.5701 32.4916 11.5088C31.287 12.7866 30.0922 14.0694 28.8778 15.3398C22.2389 22.2857 15.5901 29.2217 8.97828 36.1921C8.65803 36.5281 8.46589 37.2247 8.56442 37.676C9.19013 40.5455 9.89221 43.3979 10.6115 46.2455C11.0599 48.0187 11.5772 49.7748 12.0625 51.5382C13.2055 48.0972 14.0997 44.666 15.058 41.2543C15.8586 38.4068 16.3956 35.4956 18.2801 33.0061C20.4726 30.1096 22.3842 27.0021 24.4165 23.9829C27.1706 19.887 29.9223 15.7911 32.6764 11.6928H32.6788ZM32.568 81.3892C32.5975 81.3156 32.6296 81.2421 32.6591 81.1685C29.7203 78.1591 26.7913 75.1399 23.8426 72.1428C18.2752 66.487 12.6857 60.8558 7.1381 55.1828C6.32764 54.3539 5.48269 53.4366 5.03434 52.3967C4.27808 50.6455 3.8322 48.7594 3.2459 46.9346C2.46993 44.5114 1.68902 42.0882 0.908117 39.6675C0.78741 39.6822 0.666702 39.6945 0.545995 39.7092C0.545995 44.0553 0.531214 48.3989 0.573092 52.7449C0.575556 53.0834 0.898264 53.4758 1.16678 53.7481C9.58921 62.2219 18.0215 70.6835 26.4612 79.1377C26.7716 79.4492 27.1189 79.8073 27.518 79.9348C29.1882 80.4646 30.883 80.9134 32.568 81.3917V81.3892ZM67.5017 89.5369C67.6348 89.5957 67.7678 89.6546 67.8983 89.7135C70.8914 87.5748 73.8598 85.4017 76.8923 83.3194C77.6978 82.7651 77.9737 82.1201 78.0427 81.2175C78.5625 74.2324 79.1069 67.2473 79.6439 60.2622C79.7129 59.3695 79.7843 58.4743 79.8459 57.5791C79.9075 56.6912 79.9592 55.8034 80.0159 54.918C79.9223 54.9032 79.8262 54.8885 79.7326 54.8738C75.6556 66.4282 71.5787 77.9825 67.5017 89.5369ZM94.3949 55.2442C94.3358 55.2172 94.2766 55.1902 94.2175 55.1657C94.151 55.2589 94.0746 55.3472 94.018 55.4453C89.2069 63.8848 84.3712 72.312 79.6119 80.781C78.7866 82.2476 77.7717 83.4053 76.3774 84.3446C74.0175 85.9315 71.7413 87.6361 69.4281 89.2941C69.9405 89.3382 70.3445 89.1837 70.7362 89.0095C75.6261 86.8144 80.5037 84.5899 85.4132 82.4389C86.2163 82.0882 86.6326 81.6345 86.8667 80.8227C88.0516 76.7071 89.2759 72.6014 90.4879 68.4933C91.7886 64.0786 93.0917 59.6638 94.3949 55.2466V55.2442ZM103.45 79.7435C103.546 79.849 103.64 79.9544 103.736 80.0599C104.382 79.6111 105.116 79.2481 105.658 78.7011C113.745 70.5191 121.754 62.2587 129.915 54.1503C131.753 52.3231 132.802 50.6381 132.413 47.9181C131.928 44.5237 131.937 41.0581 131.733 37.6245C130.472 41.4923 129.42 45.3797 128.319 49.2548C128.102 50.0201 127.846 50.8564 127.35 51.4475C122.5 57.2553 117.595 63.0166 112.708 68.7925C109.619 72.442 106.535 76.094 103.448 79.746L103.45 79.7435ZM29.7153 76.6262C29.6488 76.69 29.5848 76.7562 29.5183 76.82C29.3926 76.6237 29.2793 76.4177 29.1414 76.2313C23.8918 69.2266 18.6102 62.2415 13.4124 55.1976C12.5872 54.0792 11.927 52.7547 11.5328 51.423C10.3307 47.3565 9.2936 43.2434 8.1013 38.8066C7.30562 43.6187 6.54688 48.1119 5.84727 52.6125C5.80047 52.9215 6.1084 53.363 6.36705 53.6303C11.5821 58.9501 16.7799 64.287 22.0615 69.543C24.5249 71.9932 27.1583 74.2717 29.7153 76.6287V76.6262ZM63.0355 1.19551C63.0085 1.12929 62.9789 1.06552 62.9518 0.999298C58.4511 2.72595 53.9406 4.43298 49.4646 6.2185C49.0556 6.38283 48.7009 7.02296 48.5753 7.50613C47.5505 11.499 46.5824 15.5042 45.6044 19.5093C44.6658 23.3452 43.7371 27.1836 42.806 31.022C43.0572 30.9239 43.1853 30.7816 43.2691 30.6148C47.3436 22.5604 51.4107 14.5035 55.5024 6.45886C55.7241 6.02229 56.1084 5.60779 56.5223 5.338C58.6753 3.93019 60.8628 2.57144 63.0405 1.19551H63.0355ZM61.1757 1.10476C61.0082 1.02137 60.9663 0.979677 60.9367 0.987035C54.8127 2.66709 48.6886 4.34224 42.5769 6.05663C42.2123 6.15964 41.8157 6.53734 41.6481 6.88807C38.4088 13.6696 35.2014 20.4658 31.9915 27.2596C31.3732 28.5669 30.7795 29.8839 30.176 31.1961C30.5233 31.1103 30.6711 30.9239 30.8116 30.7301C35.7827 23.7744 40.8549 16.8899 45.6684 9.82877C47.5283 7.09899 49.6641 5.18349 52.8887 4.25149C55.6896 3.44212 58.3624 2.19128 61.1831 1.09986L61.1757 1.10476ZM70.8101 2.60577C70.7731 2.68426 70.7337 2.76274 70.6968 2.84122C71.2338 3.20667 71.7437 3.62607 72.3128 3.93019C73.7908 4.71258 74.6801 5.92173 75.4044 7.41538C78.7866 14.3931 82.2576 21.3292 85.699 28.2775C86.1917 29.2708 86.6868 30.2617 87.182 31.255C87.2017 30.6001 87.0588 30.0115 86.9307 29.4204C85.3738 22.2464 83.8268 15.0725 82.2428 7.90591C82.1492 7.48651 81.8758 6.90769 81.5358 6.77034C77.9762 5.338 74.387 3.9817 70.8076 2.60577H70.8101ZM66.9918 1.01647C68.8295 11.1826 70.5982 20.9564 72.367 30.7301C72.7734 27.1444 72.9311 23.5782 73.1232 20.0146C73.3671 15.4944 73.6455 10.9791 73.8746 6.45886C73.8918 6.11058 73.7366 5.59798 73.4804 5.41894C71.4457 3.9866 69.369 2.61558 66.9943 1.01892L66.9918 1.01647ZM70.4923 1.69339C70.4578 1.75471 70.4209 1.81602 70.3864 1.87734C74.0544 3.2876 77.7323 4.67089 81.3806 6.13266C82.0186 6.38773 82.6641 6.8709 83.073 7.42029C87.719 13.65 92.3182 19.9164 96.9322 26.1707C97.8806 27.4558 98.8413 28.7312 99.8809 30.1243C99.9129 29.8545 99.9573 29.7613 99.9277 29.7024C96.2129 22.1974 92.498 14.6899 88.7512 7.19955C88.5763 6.85128 88.1624 6.49319 87.7904 6.39018C82.031 4.80088 76.2592 3.25327 70.4899 1.69585L70.4923 1.69339ZM25.291 57.4123C25.2319 57.4368 25.1753 57.4613 25.1161 57.4859C25.19 57.66 25.2492 57.844 25.3428 58.0058C30.1366 66.3153 34.9304 74.6249 39.7415 82.927C39.9114 83.2189 40.2046 83.5426 40.5076 83.6358C42.6926 84.2956 44.8949 84.9014 47.3633 85.6004C39.8868 76.0547 32.5877 66.7323 25.2886 57.4123H25.291ZM89.2439 6.21605C89.1946 6.30189 89.1453 6.39018 89.0961 6.47603C96.0109 13.9369 102.928 21.3978 109.843 28.8612C109.996 28.6208 109.981 28.535 109.937 28.4737C105.069 21.7535 100.201 15.0357 95.3236 8.32286C95.1364 8.06533 94.9097 7.73668 94.6387 7.65819C92.8503 7.14559 91.0446 6.6894 89.2439 6.21605ZM83.312 3.86642C83.2947 3.93755 83.2775 4.00868 83.2578 4.0798C86.3764 4.90144 89.4976 5.71816 92.6138 6.55206C93.9046 6.89788 95.1511 7.17993 96.2129 8.21494C101.953 13.8118 107.776 19.3278 113.58 24.8634C114.967 26.1878 116.378 27.4853 117.965 28.9667C117.849 28.6208 117.844 28.5325 117.8 28.4786C112.033 21.7927 106.269 15.1068 100.475 8.44304C100.157 8.07759 99.6247 7.81026 99.1419 7.68763C96.2843 6.95919 93.412 6.28717 90.5445 5.59798C88.1353 5.01916 85.7236 4.44279 83.312 3.86642ZM40.8525 6.76053C40.7983 6.69186 40.7441 6.62318 40.6899 6.55696C39.1946 6.96655 37.6968 7.36388 36.2114 7.8029C35.9798 7.87157 35.7532 8.09967 35.6103 8.31059C31.085 15.0259 26.5671 21.751 22.0516 28.4737C21.8841 28.7238 21.7486 28.9961 21.5984 29.2585C21.6674 29.3051 21.7363 29.3542 21.8053 29.4008C28.1535 21.854 34.5018 14.3073 40.85 6.76053H40.8525ZM17.8318 59.7913C17.7801 59.8232 17.7308 59.8551 17.6791 59.887C17.8515 60.169 17.9993 60.4683 18.1964 60.7307C23.34 67.6005 28.4861 74.4679 33.6371 81.3304C33.7775 81.5168 33.9352 81.7645 34.1323 81.8233C35.6448 82.2795 37.1697 82.694 39.0148 83.214C31.7945 75.2307 24.8131 67.5122 17.8318 59.7913Z" fill="white" stroke="white" stroke-width="8" mask="url(#path-1-inside-1_137_1439)"/>
</svg>
