<svg width="46" height="109" viewBox="0 0 46 109" fill="none" xmlns="http://www.w3.org/2000/svg">
<g clip-path="url(#clip0_134_383)">
<mask id="path-1-inside-1_134_383" fill="white">
<path d="M20 108.5C19.4475 105.783 17.8424 97.8845 17.4048 95.1492C17.238 94.1053 16.8524 93.576 15.7066 93.3984C12.1619 92.8506 9.58863 91.2071 9.15851 87.2429C9.11031 86.8061 8.35761 86.2879 7.82738 86.0954C6.50738 85.6217 5.10951 85.3588 3.77096 84.9295C2.54365 84.5371 2.17286 83.6562 2.21365 82.3533C2.25814 81.0023 3.21107 80.9504 4.04905 80.6839C10.6639 78.5889 17.4975 78.2077 24.3571 78.3076C28.1651 78.3631 31.9694 78.7592 35.9443 79.0146C35.9443 77.1861 36.011 75.402 35.8961 73.6327C35.8701 73.2218 35.2583 72.5371 34.869 72.5C25.0728 71.6228 15.2839 71.2934 5.60265 73.555C4.80175 73.74 4.0713 74.2286 3.31118 74.5766C3.29635 74.7764 3.28523 74.9726 3.2704 75.1725C5.08355 75.7499 6.89671 76.3236 8.83593 76.9418C8.98054 75.5315 9.09548 74.4063 9.21413 73.2774C9.40694 73.2959 9.59604 73.3144 9.78885 73.3366V78.1966C7.94974 77.6673 6.15513 77.1416 4.3531 76.6383C2.79949 76.2052 2.32489 75.2317 2.31005 73.6179C2.29522 71.9818 2.85882 71.0528 4.34197 70.5642C4.92411 70.3717 5.50254 70.1681 6.24783 69.9164C5.58041 67.4032 7.06727 66.4741 9.37357 66.1928C9.37357 61.8547 9.36616 57.6425 9.3884 53.4302C9.3884 53.0527 9.51447 52.6085 9.74065 52.3161C10.1448 51.7942 11.0903 51.35 11.0755 50.9021C11.0013 49.0588 11.2312 46.838 10.3005 45.4573C7.13772 40.7454 3.71905 36.2185 1.56106 30.9144C-3.93773 17.3597 5.73614 1.48793 20.3304 0.118399C33.4822 -1.11418 44.2054 7.35841 45.8295 20.3616C46.4672 25.4881 45.2993 30.3073 42.6592 34.7232C40.6051 38.1581 38.5324 41.6041 36.2001 44.8503C34.6613 46.9934 35.4252 49.2217 35.2398 51.4277C38.2802 54.2371 36.0333 57.8683 36.6933 61.0589C37.0158 62.6172 36.7489 64.2977 36.7489 66.0299C37.268 66.2224 37.8204 66.4778 38.4026 66.637C39.4334 66.9183 40.0489 67.4661 39.8412 68.6172C39.6521 69.6796 40.123 70.1607 41.1464 70.4124C42.789 70.8159 43.7345 71.6857 43.7457 73.6512C43.7568 75.6648 42.6815 76.3717 41.0945 76.8196C40.086 77.1046 39.0329 77.2527 38.054 77.6006C37.5906 77.7672 37.2457 78.2669 36.8453 78.6148C37.2049 78.9406 37.5127 79.4217 37.9354 79.5624C39.4 80.0436 40.9351 80.3175 42.3774 80.8505C42.9373 81.0578 43.7012 81.7351 43.7049 82.2052C43.716 83.001 43.4156 84.2151 42.8521 84.5186C41.4727 85.2589 39.8932 85.6846 38.347 86.0214C37.4385 86.2176 36.9083 86.4323 36.7971 87.4465C36.3855 91.1886 33.8864 92.8691 30.4788 93.3688C29.1329 93.5649 28.7843 94.1942 28.5952 95.3564C27.9723 99.1837 27.1272 103.185 26 108.5H20.5H20ZM34.2906 51.387C34.2906 50.4654 34.3573 49.7362 34.2794 49.0255C34.0458 46.9601 34.6984 45.2834 35.9109 43.5696C38.1097 40.4567 40.1675 37.2216 42.0104 33.8866C46.5451 25.6731 46.3078 17.4559 40.7348 9.90501C35.2806 2.52804 27.6609 -0.407205 18.5691 1.34358C5.08726 3.93828 -2.72525 18.5516 2.77725 31.1217C4.53849 35.1451 7.0339 38.8947 9.56638 42.511C11.2127 44.8651 12.6328 47.0564 12.0989 50.0434C12.0395 50.3802 12.1804 50.7504 12.2509 51.2501C19.5703 49.3883 26.8155 49.4623 34.2906 51.3833V51.387ZM10.1559 86.1028C10.2523 90.8333 14.0233 93.5427 18.3096 92.114C21.5243 91.0406 24.7168 91.1109 27.9167 92.1695C32.0658 93.5464 35.833 90.737 35.8553 86.088C27.2864 83.6784 18.7211 83.6266 10.1559 86.1028ZM25.5177 107.438C26.3112 103.033 27.1084 98.8062 27.7869 94.5569C27.8685 94.0498 27.3976 93.0763 26.9749 92.932C24.0234 91.9363 21.0645 91.9918 17.9981 93.328C18.8435 98.0659 19.6815 102.748 20.5195 107.438H25.5214H25.5177ZM38.8105 69.7092C39.2739 68.3396 38.8587 67.5919 37.5387 67.3736C33.8419 66.7554 30.1637 65.9559 26.441 65.5709C20.3118 64.9417 14.268 65.6487 8.3502 67.418C7.00794 67.8177 6.79288 68.5358 7.29345 69.6981C17.8127 67.9325 28.2356 67.9584 38.8105 69.7092ZM4.26411 83.8783C6.19221 84.948 8.15368 85.6402 10.3599 85.0516C18.8213 82.7975 27.2864 82.8012 35.744 85.0738C37.5757 85.5661 40.1008 85.0664 41.9918 83.6858C29.2293 80.6543 16.7486 80.6173 4.26411 83.8783ZM3.14433 72.6592C16.5669 70.1422 29.5964 70.1607 42.8224 73.0331C42.2551 71.2453 40.6755 71.1823 39.4148 70.9047C30.16 68.8763 20.8124 68.9652 11.4611 70.0164C9.15481 70.2755 6.88558 70.9491 4.62748 71.5451C4.07501 71.6931 3.63377 72.278 3.14433 72.6592ZM2.98489 82.357C3.10725 82.5791 3.2259 82.8011 3.34826 83.0195C9.77773 81.0393 16.3926 80.5285 23.0445 80.5137C29.7261 80.4989 36.3558 81.1244 42.9002 82.7863C42.1772 81.2466 40.6644 81.2243 39.4074 80.9171C32.2846 79.1886 25.0245 78.8554 17.7645 79.4217C13.4263 79.7586 9.13256 80.6802 4.83141 81.4131C4.17883 81.5242 3.59669 82.0313 2.98118 82.3533L2.98489 82.357ZM10.5267 65.1083C10.5453 65.2748 10.5675 65.4451 10.586 65.6117C13.3855 65.2785 16.1738 64.8196 18.9844 64.6493C21.7468 64.4827 24.5351 64.4864 27.2975 64.6493C30.0302 64.8122 32.7481 65.2711 35.4734 65.6006C35.4808 65.434 35.4845 65.2637 35.4919 65.0972C27.164 62.31 18.8435 62.2804 10.5304 65.1046L10.5267 65.1083ZM35.7144 55.4919C35.3695 55.2143 35.0655 54.8072 34.6725 54.6813C26.8822 52.1717 19.0808 52.168 11.2943 54.6887C10.9161 54.8109 10.6417 55.255 10.3191 55.5475C18.8658 53.3192 27.1825 53.3118 35.7144 55.4919ZM10.46 59.9818C18.8509 57.3352 27.2159 57.487 35.6143 59.7042C31.0721 55.9287 11.8319 56.2063 10.46 59.9818ZM35.4882 64.0312C35.5809 63.8831 35.6773 63.735 35.77 63.587C35.377 63.3168 35.021 62.9281 34.5872 62.7912C26.8451 60.3593 19.0919 60.3741 11.3536 62.8171C10.9643 62.9392 10.6676 63.3575 10.3265 63.6351C18.8695 61.5105 27.1862 61.4735 35.4882 64.0312ZM10.3302 62.0213C18.8361 59.4377 27.2122 59.4525 35.7737 62.0398C33.2338 58.057 12.3547 58.1348 10.3302 62.0213ZM35.8701 58.0311C32.7926 53.8485 12.1137 54.1668 10.3747 57.9349C18.8213 55.3846 27.1603 55.3328 35.8701 58.0311ZM10.1189 53.9595C18.862 51.2649 27.1974 51.3056 35.5735 53.8448C34.5279 50.1989 13.4077 49.6696 10.1189 53.9595ZM42.7668 75.1651C42.7593 74.9023 42.7482 74.6395 42.7408 74.3804C40.8683 73.8178 38.9996 73.2551 36.9713 72.6481V77.0195C39.0552 76.3532 40.9091 75.761 42.7668 75.1651Z"/>
</mask>
<path d="M20 108.5C19.4475 105.783 17.8424 97.8845 17.4048 95.1492C17.238 94.1053 16.8524 93.576 15.7066 93.3984C12.1619 92.8506 9.58863 91.2071 9.15851 87.2429C9.11031 86.8061 8.35761 86.2879 7.82738 86.0954C6.50738 85.6217 5.10951 85.3588 3.77096 84.9295C2.54365 84.5371 2.17286 83.6562 2.21365 82.3533C2.25814 81.0023 3.21107 80.9504 4.04905 80.6839C10.6639 78.5889 17.4975 78.2077 24.3571 78.3076C28.1651 78.3631 31.9694 78.7592 35.9443 79.0146C35.9443 77.1861 36.011 75.402 35.8961 73.6327C35.8701 73.2218 35.2583 72.5371 34.869 72.5C25.0728 71.6228 15.2839 71.2934 5.60265 73.555C4.80175 73.74 4.0713 74.2286 3.31118 74.5766C3.29635 74.7764 3.28523 74.9726 3.2704 75.1725C5.08355 75.7499 6.89671 76.3236 8.83593 76.9418C8.98054 75.5315 9.09548 74.4063 9.21413 73.2774C9.40694 73.2959 9.59604 73.3144 9.78885 73.3366V78.1966C7.94974 77.6673 6.15513 77.1416 4.3531 76.6383C2.79949 76.2052 2.32489 75.2317 2.31005 73.6179C2.29522 71.9818 2.85882 71.0528 4.34197 70.5642C4.92411 70.3717 5.50254 70.1681 6.24783 69.9164C5.58041 67.4032 7.06727 66.4741 9.37357 66.1928C9.37357 61.8547 9.36616 57.6425 9.3884 53.4302C9.3884 53.0527 9.51447 52.6085 9.74065 52.3161C10.1448 51.7942 11.0903 51.35 11.0755 50.9021C11.0013 49.0588 11.2312 46.838 10.3005 45.4573C7.13772 40.7454 3.71905 36.2185 1.56106 30.9144C-3.93773 17.3597 5.73614 1.48793 20.3304 0.118399C33.4822 -1.11418 44.2054 7.35841 45.8295 20.3616C46.4672 25.4881 45.2993 30.3073 42.6592 34.7232C40.6051 38.1581 38.5324 41.6041 36.2001 44.8503C34.6613 46.9934 35.4252 49.2217 35.2398 51.4277C38.2802 54.2371 36.0333 57.8683 36.6933 61.0589C37.0158 62.6172 36.7489 64.2977 36.7489 66.0299C37.268 66.2224 37.8204 66.4778 38.4026 66.637C39.4334 66.9183 40.0489 67.4661 39.8412 68.6172C39.6521 69.6796 40.123 70.1607 41.1464 70.4124C42.789 70.8159 43.7345 71.6857 43.7457 73.6512C43.7568 75.6648 42.6815 76.3717 41.0945 76.8196C40.086 77.1046 39.0329 77.2527 38.054 77.6006C37.5906 77.7672 37.2457 78.2669 36.8453 78.6148C37.2049 78.9406 37.5127 79.4217 37.9354 79.5624C39.4 80.0436 40.9351 80.3175 42.3774 80.8505C42.9373 81.0578 43.7012 81.7351 43.7049 82.2052C43.716 83.001 43.4156 84.2151 42.8521 84.5186C41.4727 85.2589 39.8932 85.6846 38.347 86.0214C37.4385 86.2176 36.9083 86.4323 36.7971 87.4465C36.3855 91.1886 33.8864 92.8691 30.4788 93.3688C29.1329 93.5649 28.7843 94.1942 28.5952 95.3564C27.9723 99.1837 27.1272 103.185 26 108.5H20.5H20ZM34.2906 51.387C34.2906 50.4654 34.3573 49.7362 34.2794 49.0255C34.0458 46.9601 34.6984 45.2834 35.9109 43.5696C38.1097 40.4567 40.1675 37.2216 42.0104 33.8866C46.5451 25.6731 46.3078 17.4559 40.7348 9.90501C35.2806 2.52804 27.6609 -0.407205 18.5691 1.34358C5.08726 3.93828 -2.72525 18.5516 2.77725 31.1217C4.53849 35.1451 7.0339 38.8947 9.56638 42.511C11.2127 44.8651 12.6328 47.0564 12.0989 50.0434C12.0395 50.3802 12.1804 50.7504 12.2509 51.2501C19.5703 49.3883 26.8155 49.4623 34.2906 51.3833V51.387ZM10.1559 86.1028C10.2523 90.8333 14.0233 93.5427 18.3096 92.114C21.5243 91.0406 24.7168 91.1109 27.9167 92.1695C32.0658 93.5464 35.833 90.737 35.8553 86.088C27.2864 83.6784 18.7211 83.6266 10.1559 86.1028ZM25.5177 107.438C26.3112 103.033 27.1084 98.8062 27.7869 94.5569C27.8685 94.0498 27.3976 93.0763 26.9749 92.932C24.0234 91.9363 21.0645 91.9918 17.9981 93.328C18.8435 98.0659 19.6815 102.748 20.5195 107.438H25.5214H25.5177ZM38.8105 69.7092C39.2739 68.3396 38.8587 67.5919 37.5387 67.3736C33.8419 66.7554 30.1637 65.9559 26.441 65.5709C20.3118 64.9417 14.268 65.6487 8.3502 67.418C7.00794 67.8177 6.79288 68.5358 7.29345 69.6981C17.8127 67.9325 28.2356 67.9584 38.8105 69.7092ZM4.26411 83.8783C6.19221 84.948 8.15368 85.6402 10.3599 85.0516C18.8213 82.7975 27.2864 82.8012 35.744 85.0738C37.5757 85.5661 40.1008 85.0664 41.9918 83.6858C29.2293 80.6543 16.7486 80.6173 4.26411 83.8783ZM3.14433 72.6592C16.5669 70.1422 29.5964 70.1607 42.8224 73.0331C42.2551 71.2453 40.6755 71.1823 39.4148 70.9047C30.16 68.8763 20.8124 68.9652 11.4611 70.0164C9.15481 70.2755 6.88558 70.9491 4.62748 71.5451C4.07501 71.6931 3.63377 72.278 3.14433 72.6592ZM2.98489 82.357C3.10725 82.5791 3.2259 82.8011 3.34826 83.0195C9.77773 81.0393 16.3926 80.5285 23.0445 80.5137C29.7261 80.4989 36.3558 81.1244 42.9002 82.7863C42.1772 81.2466 40.6644 81.2243 39.4074 80.9171C32.2846 79.1886 25.0245 78.8554 17.7645 79.4217C13.4263 79.7586 9.13256 80.6802 4.83141 81.4131C4.17883 81.5242 3.59669 82.0313 2.98118 82.3533L2.98489 82.357ZM10.5267 65.1083C10.5453 65.2748 10.5675 65.4451 10.586 65.6117C13.3855 65.2785 16.1738 64.8196 18.9844 64.6493C21.7468 64.4827 24.5351 64.4864 27.2975 64.6493C30.0302 64.8122 32.7481 65.2711 35.4734 65.6006C35.4808 65.434 35.4845 65.2637 35.4919 65.0972C27.164 62.31 18.8435 62.2804 10.5304 65.1046L10.5267 65.1083ZM35.7144 55.4919C35.3695 55.2143 35.0655 54.8072 34.6725 54.6813C26.8822 52.1717 19.0808 52.168 11.2943 54.6887C10.9161 54.8109 10.6417 55.255 10.3191 55.5475C18.8658 53.3192 27.1825 53.3118 35.7144 55.4919ZM10.46 59.9818C18.8509 57.3352 27.2159 57.487 35.6143 59.7042C31.0721 55.9287 11.8319 56.2063 10.46 59.9818ZM35.4882 64.0312C35.5809 63.8831 35.6773 63.735 35.77 63.587C35.377 63.3168 35.021 62.9281 34.5872 62.7912C26.8451 60.3593 19.0919 60.3741 11.3536 62.8171C10.9643 62.9392 10.6676 63.3575 10.3265 63.6351C18.8695 61.5105 27.1862 61.4735 35.4882 64.0312ZM10.3302 62.0213C18.8361 59.4377 27.2122 59.4525 35.7737 62.0398C33.2338 58.057 12.3547 58.1348 10.3302 62.0213ZM35.8701 58.0311C32.7926 53.8485 12.1137 54.1668 10.3747 57.9349C18.8213 55.3846 27.1603 55.3328 35.8701 58.0311ZM10.1189 53.9595C18.862 51.2649 27.1974 51.3056 35.5735 53.8448C34.5279 50.1989 13.4077 49.6696 10.1189 53.9595ZM42.7668 75.1651C42.7593 74.9023 42.7482 74.6395 42.7408 74.3804C40.8683 73.8178 38.9996 73.2551 36.9713 72.6481V77.0195C39.0552 76.3532 40.9091 75.761 42.7668 75.1651Z" fill="white" stroke="white" stroke-width="8" mask="url(#path-1-inside-1_134_383)"/>
</g>
<defs>
<clipPath id="clip0_134_383">
<rect width="46" height="109" fill="white"/>
</clipPath>
</defs>
</svg>
